<svg xmlns="http://www.w3.org/2000/svg" width="70" height="70" fill="none"><g clip-path="url(#a)"><path fill="#6911AD" d="m55.621 14.3792-4.1125 4.1125c4.2 4.2292 6.825 10.0625 6.825 16.5083 0 12.8917-10.4417 23.3334-23.3333 23.3334-12.8917 0-23.3334-10.4417-23.3334-23.3334 0-11.9 8.8959-21.7 20.4167-23.1291v5.8916c-8.2833 1.4-14.5833 8.575-14.5833 17.2375 0 9.6542 7.8458 17.5 17.5 17.5 9.6541 0 17.5-7.8458 17.5-17.5 0-4.8416-1.9542-9.2166-5.1334-12.3666l-4.1125 4.1125c2.1 2.1291 3.4125 5.0458 3.4125 8.2541 0 6.4459-5.2208 11.6667-11.6666 11.6667-6.4459 0-11.6667-5.2208-11.6667-11.6667 0-5.425 3.7333-9.9458 8.75-11.2583v6.2417c-1.75 1.0208-2.9167 2.8583-2.9167 5.0166 0 3.2084 2.625 5.8334 5.8334 5.8334 3.2083 0 5.8333-2.625 5.8333-5.8334 0-2.1583-1.1667-4.025-2.9167-5.0166V5.83337h-2.9166C18.9002 5.83337 5.8335 18.9 5.8335 35s13.0667 29.1667 29.1667 29.1667c16.1 0 29.1666-13.0667 29.1666-29.1667 0-8.05-3.2666-15.3416-8.5458-20.6208Z"/></g><defs><clipPath id="a"><path fill="#fff" d="M0 0h70v70H0z"/></clipPath></defs></svg>