<svg xmlns="http://www.w3.org/2000/svg" width="70" height="70" fill="none"><g clip-path="url(#a)"><path fill="#6911AD" d="M57.983 53.87c1.284-2.04 2.042-4.403 2.042-6.97A13.107 13.107 0 0 0 46.9 33.775 13.107 13.107 0 0 0 33.775 46.9c0 7.263 5.862 13.125 13.096 13.125 2.566 0 4.958-.758 6.97-2.042l9.1 9.1 4.142-4.141-9.1-9.071Zm-11.083.322a7.294 7.294 0 0 1-7.292-7.292 7.294 7.294 0 0 1 7.292-7.292A7.294 7.294 0 0 1 54.19 46.9a7.294 7.294 0 0 1-7.291 7.292ZM45.85 29.4c-2.159.058-4.23.525-6.125 1.313l-1.604-2.421-11.084 18.025-8.779-10.267L7.671 52.996l-4.755-3.413L17.5 26.25l8.75 10.208L37.916 17.5l7.934 11.9Zm7.554 1.458a17.275 17.275 0 0 0-5.98-1.429L62.359 5.833l4.725 3.442-13.679 21.583Z"/></g><defs><clipPath id="a"><path fill="#fff" d="M0 0h70v70H0z"/></clipPath></defs></svg>