<svg xmlns="http://www.w3.org/2000/svg" width="70" height="70" fill="none"><g clip-path="url(#a)"><path fill="#6911AD" d="M26.8043 18.5208C20.8543 25.2 16.771 34.7958 16.3918 35.7L5.8335 31.1791 17.646 19.3666c1.3708-1.3708 3.3542-1.9833 5.2792-1.6041l3.8791.7583Zm5.775 31.0625s10.9084-4.5208 17.1792-10.7917c15.75-15.75 13.125-28.0583 12.2792-30.82914-2.7709-.875-15.0792-3.47084-30.8292 12.27914-6.2708 6.2709-10.7917 17.1792-10.7917 17.1792l12.1625 12.1625Zm18.9-6.3875c-6.6791 5.95-16.275 10.0333-17.1791 10.4125l4.5208 10.5583 11.8125-11.8125c1.3708-1.3708 1.9833-3.3541 1.6042-5.2791l-.7584-3.8792ZM26.2502 52.5c0 2.4208-.9917 4.6083-2.5667 6.1833-3.4417 3.4417-17.85 5.4833-17.85 5.4833s2.04166-14.4083 5.4833-17.85c1.575-1.575 3.7625-2.5666 6.1834-2.5666 4.8416 0 8.75 3.9083 8.75 8.75Zm11.6666-26.25c0-3.2084 2.625-5.8334 5.8334-5.8334 3.2083 0 5.8333 2.625 5.8333 5.8334 0 3.2083-2.625 5.8333-5.8333 5.8333-3.2084 0-5.8334-2.625-5.8334-5.8333Z"/></g><defs><clipPath id="a"><path fill="#fff" d="M0 0h70v70H0z"/></clipPath></defs></svg>